<svg width="73" height="73" viewBox="0 0 73 73" fill="none" xmlns="http://www.w3.org/2000/svg">
<rect width="73" height="73" rx="13.87" fill="#19173D"/>
<rect x="12" y="47" width="28" height="4" fill="white"/>
<path d="M12.2591 44V25.4545H17.8735V28.8594H18.0787C18.4651 27.7325 19.1171 26.843 20.0347 26.1911C20.9523 25.5391 22.047 25.2131 23.3188 25.2131C24.6067 25.2131 25.7094 25.5431 26.627 26.2031C27.5447 26.8632 28.1282 27.7486 28.3778 28.8594H28.5709C28.9171 27.7566 29.5932 26.8752 30.5993 26.2152C31.6055 25.5471 32.7928 25.2131 34.1611 25.2131C35.9159 25.2131 37.3406 25.7765 38.4353 26.9034C39.53 28.0223 40.0773 29.5597 40.0773 31.5156V44H34.1732V32.8679C34.1732 31.9422 33.9358 31.2379 33.4608 30.755C32.9859 30.264 32.3702 30.0185 31.6135 30.0185C30.8006 30.0185 30.1607 30.2841 29.6938 30.8153C29.235 31.3385 29.0056 32.0428 29.0056 32.9283V44H23.3309V32.8075C23.3309 31.9463 23.0974 31.2661 22.6306 30.767C22.1637 30.268 21.548 30.0185 20.7833 30.0185C20.2681 30.0185 19.8134 30.1432 19.4189 30.3928C19.0245 30.6342 18.7146 30.9804 18.4893 31.4311C18.2719 31.8819 18.1633 32.4131 18.1633 33.0249V44H12.2591ZM43.7357 50.9545V25.4545H49.5795V28.63H49.7606C50.002 28.0665 50.3441 27.5232 50.7868 27C51.2376 26.4768 51.8091 26.0502 52.5013 25.7202C53.2016 25.3821 54.0387 25.2131 55.0127 25.2131C56.3006 25.2131 57.5039 25.5511 58.6228 26.2273C59.7497 26.9034 60.6592 27.9458 61.3515 29.3544C62.0437 30.763 62.3898 32.558 62.3898 34.7393C62.3898 36.8402 62.0558 38.599 61.3877 40.0156C60.7277 41.4323 59.8342 42.4948 58.7073 43.2031C57.5885 43.9115 56.3448 44.2656 54.9765 44.2656C54.0428 44.2656 53.2338 44.1127 52.5496 43.8068C51.8654 43.5009 51.2899 43.0985 50.8231 42.5994C50.3643 42.1004 50.0101 41.5651 49.7606 40.9936H49.6398V50.9545H43.7357ZM49.5191 34.7273C49.5191 35.7254 49.6519 36.5947 49.9175 37.3352C50.1912 38.0758 50.5816 38.6513 51.0887 39.0618C51.6038 39.4643 52.2196 39.6655 52.936 39.6655C53.6604 39.6655 54.2762 39.4643 54.7833 39.0618C55.2904 38.6513 55.6727 38.0758 55.9303 37.3352C56.1959 36.5947 56.3287 35.7254 56.3287 34.7273C56.3287 33.7292 56.1959 32.8639 55.9303 32.1314C55.6727 31.3989 55.2904 30.8314 54.7833 30.429C54.2842 30.0265 53.6685 29.8253 52.936 29.8253C52.2116 29.8253 51.5958 30.0225 51.0887 30.4169C50.5816 30.8113 50.1912 31.3748 49.9175 32.1072C49.6519 32.8397 49.5191 33.7131 49.5191 34.7273Z" fill="white"/>
</svg>
