<svg width="191" height="100" viewBox="0 0 191 100" fill="none" xmlns="http://www.w3.org/2000/svg">
<g clip-path="url(#clip0_507_228)">
<rect x="9" y="80" width="98" height="17" fill="white"/>
<path d="M9.17933 73V7.54545H28.9947V19.5625H29.7191C31.0827 15.5852 33.3839 12.446 36.6225 10.1449C39.8612 7.84375 43.7248 6.69318 48.2134 6.69318C52.7589 6.69318 56.6509 7.85795 59.8896 10.1875C63.1282 12.517 65.1879 15.642 66.0685 19.5625H66.7504C67.9719 15.6705 70.3583 12.5597 73.9094 10.2301C77.4606 7.87216 81.6509 6.69318 86.4805 6.69318C92.6737 6.69318 97.7021 8.68182 101.566 12.6591C105.429 16.608 107.361 22.0341 107.361 28.9375V73H86.5231V33.7102C86.5231 30.4432 85.685 27.9574 84.0089 26.2528C82.3327 24.5199 80.1595 23.6534 77.489 23.6534C74.6197 23.6534 72.3612 24.5909 70.7134 26.4659C69.0941 28.3125 68.2844 30.7983 68.2844 33.9233V73H48.256V33.4972C48.256 30.4574 47.4322 28.0568 45.7844 26.2955C44.1367 24.5341 41.9634 23.6534 39.2646 23.6534C37.4464 23.6534 35.8413 24.0937 34.4492 24.9744C33.0572 25.8267 31.9634 27.0483 31.168 28.6392C30.4009 30.2301 30.0174 32.1051 30.0174 34.2642V73H9.17933ZM120.273 97.5455V7.54545H140.898V18.7528H141.537C142.39 16.7642 143.597 14.8466 145.159 13C146.75 11.1534 148.767 9.64773 151.211 8.48295C153.682 7.28977 156.637 6.69318 160.074 6.69318C164.62 6.69318 168.867 7.88636 172.816 10.2727C176.793 12.6591 180.003 16.3381 182.446 21.3097C184.89 26.2812 186.111 32.6165 186.111 40.3153C186.111 47.7301 184.932 53.9375 182.574 58.9375C180.245 63.9375 177.091 67.6875 173.114 70.1875C169.165 72.6875 164.776 73.9375 159.946 73.9375C156.651 73.9375 153.796 73.3977 151.381 72.3182C148.966 71.2386 146.935 69.8182 145.287 68.0568C143.668 66.2955 142.418 64.4062 141.537 62.3892H141.111V97.5455H120.273ZM140.685 40.2727C140.685 43.7955 141.154 46.8636 142.091 49.4773C143.057 52.0909 144.435 54.1222 146.225 55.571C148.043 56.9915 150.216 57.7017 152.745 57.7017C155.301 57.7017 157.475 56.9915 159.265 55.571C161.054 54.1222 162.404 52.0909 163.313 49.4773C164.25 46.8636 164.719 43.7955 164.719 40.2727C164.719 36.75 164.25 33.696 163.313 31.1108C162.404 28.5256 161.054 26.5227 159.265 25.1023C157.503 23.6818 155.33 22.9716 152.745 22.9716C150.188 22.9716 148.015 23.6676 146.225 25.0597C144.435 26.4517 143.057 28.4403 142.091 31.0256C141.154 33.6108 140.685 36.6932 140.685 40.2727Z" fill="white"/>
</g>
<defs>
<clipPath id="clip0_507_228">
<rect width="191" height="100" fill="white"/>
</clipPath>
</defs>
</svg>
