<svg width="32" height="20" viewBox="0 0 32 20" fill="none" xmlns="http://www.w3.org/2000/svg">
<path d="M11.6733 17.8619H20.3264V2.13812H11.6733V17.8619Z" fill="#FF5F00"/>
<path d="M12.2229 10C12.2229 6.81003 13.6999 3.96893 16 2.13811C14.3177 0.798947 12.1954 6.10352e-05 9.88844 6.10352e-05C4.42709 6.10352e-05 0 4.47726 0 10C0 15.5228 4.42709 20 9.88844 20C12.1954 20 14.3177 19.2011 16 17.8619C13.6999 16.0308 12.2229 13.19 12.2229 10Z" fill="#EB001B"/>
<path fill-rule="evenodd" clip-rule="evenodd" d="M22.1116 19.9999C27.5726 19.9999 32 15.5227 32 9.99996C32 4.4772 27.5726 0 22.1116 0C19.8046 0 17.682 0.798886 16 2.13805C18.3001 3.96915 19.7771 6.81025 19.7771 9.99996C19.7771 13.1899 18.3001 16.031 16 17.8619C17.682 19.201 19.8046 19.9999 22.1116 19.9999ZM31.6912 16.1966V15.8085H31.591L31.4759 16.0755L31.3605 15.8085H31.2602V16.1966H31.3308V15.9038L31.4391 16.1563H31.5124L31.6206 15.9033V16.1966H31.6912ZM31.0564 16.1966V15.8747H31.185V15.8091H30.8581V15.8747H30.9864V16.1966H31.0564Z" fill="#F79E1B"/>
</svg>
