<svg width="30" height="30" viewBox="0 0 30 30" fill="none" xmlns="http://www.w3.org/2000/svg">
<path d="M15 0C6.72 0 0 6.72 0 15C0 23.28 6.72 30 15 30C23.28 30 30 23.28 30 15C30 6.72 23.28 0 15 0ZM16.5 25.5H13.5V22.5H16.5V25.5ZM19.605 13.875L18.255 15.255C17.175 16.35 16.5 17.25 16.5 19.5H13.5V18.75C13.5 17.1 14.175 15.6 15.255 14.505L17.115 12.615C17.67 12.075 18 11.325 18 10.5C18 8.85 16.65 7.5 15 7.5C13.35 7.5 12 8.85 12 10.5H9C9 7.185 11.685 4.5 15 4.5C18.315 4.5 21 7.185 21 10.5C21 11.82 20.46 13.02 19.605 13.875Z" fill="#FF00FF"/>
</svg>
