<svg width="116" height="75" viewBox="0 0 116 75" fill="none" xmlns="http://www.w3.org/2000/svg">
<g clip-path="url(#clip0_423_103)">
<line x1="4" y1="64.5" x2="26" y2="64.5" stroke="#7B78AA" stroke-width="3"/>
<line x1="91" y1="62.5" x2="113" y2="62.5" stroke="#7B78AA" stroke-width="3"/>
<path d="M33.0362 19.72C33.0362 21.84 32.5362 23.84 31.5362 25.72C30.5362 27.6 28.9362 29.14 26.7362 30.34C24.5362 31.5 21.7162 32.08 18.2762 32.08H10.7162V49H3.87618V7.3H18.2762C21.4762 7.3 24.1762 7.86 26.3762 8.98C28.6162 10.06 30.2762 11.54 31.3562 13.42C32.4762 15.3 33.0362 17.4 33.0362 19.72ZM18.2762 26.5C20.8762 26.5 22.8162 25.92 24.0962 24.76C25.3762 23.56 26.0162 21.88 26.0162 19.72C26.0162 15.16 23.4362 12.88 18.2762 12.88H10.7162V26.5H18.2762ZM64.3998 40.48H46.9398L43.9398 49H36.7998L51.7398 7.24H59.6598L74.5998 49H67.3998L64.3998 40.48ZM62.4798 34.9L55.6998 15.52L48.8598 34.9H62.4798ZM111.696 7.3L97.8957 33.88V49H91.0557V33.88L77.1957 7.3H84.8157L94.4757 27.76L104.136 7.3H111.696Z" fill="#7B78AA"/>
<path d="M35.0362 19.72C35.0362 21.84 34.5362 23.84 33.5362 25.72C32.5362 27.6 30.9362 29.14 28.7362 30.34C26.5362 31.5 23.7162 32.08 20.2762 32.08H12.7162V49H5.87618V7.3H20.2762C23.4762 7.3 26.1762 7.86 28.3762 8.98C30.6162 10.06 32.2762 11.54 33.3562 13.42C34.4762 15.3 35.0362 17.4 35.0362 19.72ZM20.2762 26.5C22.8762 26.5 24.8162 25.92 26.0962 24.76C27.3762 23.56 28.0162 21.88 28.0162 19.72C28.0162 15.16 25.4362 12.88 20.2762 12.88H12.7162V26.5H20.2762ZM66.3998 40.48H48.9398L45.9398 49H38.7998L53.7398 7.24H61.6598L76.5998 49H69.3998L66.3998 40.48ZM64.4798 34.9L57.6998 15.52L50.8598 34.9H64.4798ZM113.696 7.3L99.8957 33.88V49H93.0557V33.88L79.1957 7.3H86.8157L96.4757 27.76L106.136 7.3H113.696Z" fill="white"/>
<path d="M44.2455 71.14C42.9521 71.14 41.7588 70.84 40.6655 70.24C39.5855 69.6267 38.7255 68.78 38.0855 67.7C37.4588 66.6067 37.1455 65.38 37.1455 64.02C37.1455 62.66 37.4588 61.44 38.0855 60.36C38.7255 59.28 39.5855 58.44 40.6655 57.84C41.7588 57.2267 42.9521 56.92 44.2455 56.92C45.5521 56.92 46.7455 57.2267 47.8255 57.84C48.9188 58.44 49.7788 59.28 50.4055 60.36C51.0321 61.44 51.3455 62.66 51.3455 64.02C51.3455 65.38 51.0321 66.6067 50.4055 67.7C49.7788 68.78 48.9188 69.6267 47.8255 70.24C46.7455 70.84 45.5521 71.14 44.2455 71.14ZM44.2455 69.16C45.1655 69.16 45.9855 68.9533 46.7055 68.54C47.4255 68.1133 47.9855 67.5133 48.3855 66.74C48.7988 65.9533 49.0055 65.0467 49.0055 64.02C49.0055 62.9933 48.7988 62.0933 48.3855 61.32C47.9855 60.5467 47.4255 59.9533 46.7055 59.54C45.9855 59.1267 45.1655 58.92 44.2455 58.92C43.3255 58.92 42.5055 59.1267 41.7855 59.54C41.0655 59.9533 40.4988 60.5467 40.0855 61.32C39.6855 62.0933 39.4855 62.9933 39.4855 64.02C39.4855 65.0467 39.6855 65.9533 40.0855 66.74C40.4988 67.5133 41.0655 68.1133 41.7855 68.54C42.5055 68.9533 43.3255 69.16 44.2455 69.16ZM60.5091 71L57.3091 65.44H55.5691V71H53.2891V57.1H58.0891C59.1557 57.1 60.0557 57.2867 60.7891 57.66C61.5357 58.0333 62.0891 58.5333 62.4491 59.16C62.8224 59.7867 63.0091 60.4867 63.0091 61.26C63.0091 62.1667 62.7424 62.9933 62.2091 63.74C61.6891 64.4733 60.8824 64.9733 59.7891 65.24L63.2291 71H60.5091ZM55.5691 63.62H58.0891C58.9424 63.62 59.5824 63.4067 60.0091 62.98C60.4491 62.5533 60.6691 61.98 60.6691 61.26C60.6691 60.54 60.4557 59.98 60.0291 59.58C59.6024 59.1667 58.9557 58.96 58.0891 58.96H55.5691V63.62ZM75.6858 61.1C75.3258 60.4067 74.8258 59.8867 74.1858 59.54C73.5458 59.18 72.8058 59 71.9658 59C71.0458 59 70.2258 59.2067 69.5058 59.62C68.7858 60.0333 68.2191 60.62 67.8058 61.38C67.4058 62.14 67.2058 63.02 67.2058 64.02C67.2058 65.02 67.4058 65.9067 67.8058 66.68C68.2191 67.44 68.7858 68.0267 69.5058 68.44C70.2258 68.8533 71.0458 69.06 71.9658 69.06C73.2058 69.06 74.2124 68.7133 74.9858 68.02C75.7591 67.3267 76.2324 66.3867 76.4058 65.2H71.1858V63.38H78.8458V65.16C78.6991 66.24 78.3124 67.2333 77.6858 68.14C77.0724 69.0467 76.2658 69.7733 75.2658 70.32C74.2791 70.8533 73.1791 71.12 71.9658 71.12C70.6591 71.12 69.4658 70.82 68.3858 70.22C67.3058 69.6067 66.4458 68.76 65.8058 67.68C65.1791 66.6 64.8658 65.38 64.8658 64.02C64.8658 62.66 65.1791 61.44 65.8058 60.36C66.4458 59.28 67.3058 58.44 68.3858 57.84C69.4791 57.2267 70.6724 56.92 71.9658 56.92C73.4458 56.92 74.7591 57.2867 75.9058 58.02C77.0658 58.74 77.9058 59.7667 78.4258 61.1H75.6858Z" fill="white"/>
</g>
<defs>
<clipPath id="clip0_423_103">
<rect width="116" height="75" fill="white"/>
</clipPath>
</defs>
</svg>
