<svg width="275" height="75" viewBox="0 0 275 75" fill="none" xmlns="http://www.w3.org/2000/svg">
<g clip-path="url(#clip0_421_94)">
<line x1="3" y1="64.5" x2="107" y2="64.5" stroke="#7B78AA" stroke-width="3"/>
<line x1="167" y1="64.5" x2="273" y2="64.5" stroke="#7B78AA" stroke-width="3"/>
<path d="M32.894 19.72C32.894 21.84 32.394 23.84 31.394 25.72C30.394 27.6 28.794 29.14 26.594 30.34C24.394 31.5 21.574 32.08 18.134 32.08H10.574V49H3.73398V7.3H18.134C21.334 7.3 24.034 7.86 26.234 8.98C28.474 10.06 30.134 11.54 31.214 13.42C32.334 15.3 32.894 17.4 32.894 19.72ZM18.134 26.5C20.734 26.5 22.674 25.92 23.954 24.76C25.234 23.56 25.874 21.88 25.874 19.72C25.874 15.16 23.294 12.88 18.134 12.88H10.574V26.5H18.134ZM64.2576 40.48H46.7976L43.7976 49H36.6576L51.5976 7.24H59.5176L74.4576 49H67.2576L64.2576 40.48ZM62.3376 34.9L55.5576 15.52L48.7176 34.9H62.3376ZM111.554 7.3L97.7535 33.88V49H90.9135V33.88L77.0535 7.3H84.6735L94.3335 27.76L103.994 7.3H111.554ZM160.602 7.3V49H153.762V20.44L141.042 49H136.302L123.522 20.44V49H116.682V7.3H124.062L138.702 40L153.282 7.3H160.602ZM176.132 12.82V25.06H190.532V30.64H176.132V43.42H192.332V49H169.292V7.24H192.332V12.82H176.132ZM234.717 49H227.877L207.297 17.86V49H200.457V7.24H207.297L227.877 38.32V7.24H234.717V49ZM270.339 7.3V12.88H259.239V49H252.399V12.88H241.239V7.3H270.339Z" fill="#7B78AA"/>
<path d="M34.894 19.72C34.894 21.84 34.394 23.84 33.394 25.72C32.394 27.6 30.794 29.14 28.594 30.34C26.394 31.5 23.574 32.08 20.134 32.08H12.574V49H5.73398V7.3H20.134C23.334 7.3 26.034 7.86 28.234 8.98C30.474 10.06 32.134 11.54 33.214 13.42C34.334 15.3 34.894 17.4 34.894 19.72ZM20.134 26.5C22.734 26.5 24.674 25.92 25.954 24.76C27.234 23.56 27.874 21.88 27.874 19.72C27.874 15.16 25.294 12.88 20.134 12.88H12.574V26.5H20.134ZM66.2576 40.48H48.7976L45.7976 49H38.6576L53.5976 7.24H61.5176L76.4576 49H69.2576L66.2576 40.48ZM64.3376 34.9L57.5576 15.52L50.7176 34.9H64.3376ZM113.554 7.3L99.7535 33.88V49H92.9135V33.88L79.0535 7.3H86.6735L96.3335 27.76L105.994 7.3H113.554ZM162.602 7.3V49H155.762V20.44L143.042 49H138.302L125.522 20.44V49H118.682V7.3H126.062L140.702 40L155.282 7.3H162.602ZM178.132 12.82V25.06H192.532V30.64H178.132V43.42H194.332V49H171.292V7.24H194.332V12.82H178.132ZM236.717 49H229.877L209.297 17.86V49H202.457V7.24H209.297L229.877 38.32V7.24H236.717V49ZM272.339 7.3V12.88H261.239V49H254.399V12.88H243.239V7.3H272.339Z" fill="white"/>
<path d="M124.245 71.14C122.952 71.14 121.759 70.84 120.665 70.24C119.585 69.6267 118.725 68.78 118.085 67.7C117.459 66.6067 117.145 65.38 117.145 64.02C117.145 62.66 117.459 61.44 118.085 60.36C118.725 59.28 119.585 58.44 120.665 57.84C121.759 57.2267 122.952 56.92 124.245 56.92C125.552 56.92 126.745 57.2267 127.825 57.84C128.919 58.44 129.779 59.28 130.405 60.36C131.032 61.44 131.345 62.66 131.345 64.02C131.345 65.38 131.032 66.6067 130.405 67.7C129.779 68.78 128.919 69.6267 127.825 70.24C126.745 70.84 125.552 71.14 124.245 71.14ZM124.245 69.16C125.165 69.16 125.985 68.9533 126.705 68.54C127.425 68.1133 127.985 67.5133 128.385 66.74C128.799 65.9533 129.005 65.0467 129.005 64.02C129.005 62.9933 128.799 62.0933 128.385 61.32C127.985 60.5467 127.425 59.9533 126.705 59.54C125.985 59.1267 125.165 58.92 124.245 58.92C123.325 58.92 122.505 59.1267 121.785 59.54C121.065 59.9533 120.499 60.5467 120.085 61.32C119.685 62.0933 119.485 62.9933 119.485 64.02C119.485 65.0467 119.685 65.9533 120.085 66.74C120.499 67.5133 121.065 68.1133 121.785 68.54C122.505 68.9533 123.325 69.16 124.245 69.16ZM140.509 71L137.309 65.44H135.569V71H133.289V57.1H138.089C139.156 57.1 140.056 57.2867 140.789 57.66C141.536 58.0333 142.089 58.5333 142.449 59.16C142.822 59.7867 143.009 60.4867 143.009 61.26C143.009 62.1667 142.742 62.9933 142.209 63.74C141.689 64.4733 140.882 64.9733 139.789 65.24L143.229 71H140.509ZM135.569 63.62H138.089C138.942 63.62 139.582 63.4067 140.009 62.98C140.449 62.5533 140.669 61.98 140.669 61.26C140.669 60.54 140.456 59.98 140.029 59.58C139.602 59.1667 138.956 58.96 138.089 58.96H135.569V63.62ZM155.686 61.1C155.326 60.4067 154.826 59.8867 154.186 59.54C153.546 59.18 152.806 59 151.966 59C151.046 59 150.226 59.2067 149.506 59.62C148.786 60.0333 148.219 60.62 147.806 61.38C147.406 62.14 147.206 63.02 147.206 64.02C147.206 65.02 147.406 65.9067 147.806 66.68C148.219 67.44 148.786 68.0267 149.506 68.44C150.226 68.8533 151.046 69.06 151.966 69.06C153.206 69.06 154.212 68.7133 154.986 68.02C155.759 67.3267 156.232 66.3867 156.406 65.2H151.186V63.38H158.846V65.16C158.699 66.24 158.312 67.2333 157.686 68.14C157.072 69.0467 156.266 69.7733 155.266 70.32C154.279 70.8533 153.179 71.12 151.966 71.12C150.659 71.12 149.466 70.82 148.386 70.22C147.306 69.6067 146.446 68.76 145.806 67.68C145.179 66.6 144.866 65.38 144.866 64.02C144.866 62.66 145.179 61.44 145.806 60.36C146.446 59.28 147.306 58.44 148.386 57.84C149.479 57.2267 150.672 56.92 151.966 56.92C153.446 56.92 154.759 57.2867 155.906 58.02C157.066 58.74 157.906 59.7667 158.426 61.1H155.686Z" fill="white"/>
</g>
<defs>
<clipPath id="clip0_421_94">
<rect width="275" height="75" fill="white"/>
</clipPath>
</defs>
</svg>
