<svg width="20" height="15" viewBox="0 0 20 15" fill="none" xmlns="http://www.w3.org/2000/svg">
<path d="M12.1596 9.09C12.1596 9.41 12.0796 9.71667 11.9196 10.01C11.7596 10.2967 11.523 10.5367 11.2096 10.73C10.903 10.9233 10.533 11.0333 10.0996 11.06V11.87H9.55965V11.06C8.95298 11.0067 8.45965 10.8133 8.07965 10.48C7.69965 10.14 7.50632 9.71 7.49965 9.19H8.46965C8.49632 9.47 8.59965 9.71333 8.77965 9.92C8.96632 10.1267 9.22632 10.2567 9.55965 10.31V7.81C9.11298 7.69667 8.75298 7.58 8.47965 7.46C8.20632 7.34 7.97298 7.15333 7.77965 6.9C7.58632 6.64667 7.48965 6.30667 7.48965 5.88C7.48965 5.34 7.67632 4.89333 8.04965 4.54C8.42965 4.18667 8.93298 3.99 9.55965 3.95V3.12H10.0996V3.95C10.6663 3.99667 11.123 4.18 11.4696 4.5C11.8163 4.81333 12.0163 5.22333 12.0696 5.73H11.0996C11.0663 5.49667 10.963 5.28667 10.7896 5.1C10.6163 4.90667 10.3863 4.78 10.0996 4.72V7.16C10.5396 7.27333 10.8963 7.39 11.1696 7.51C11.4496 7.62333 11.683 7.80667 11.8696 8.06C12.063 8.31333 12.1596 8.65667 12.1596 9.09ZM8.41965 5.83C8.41965 6.15667 8.51632 6.40667 8.70965 6.58C8.90298 6.75333 9.18632 6.89667 9.55965 7.01V4.7C9.21298 4.73333 8.93632 4.84667 8.72965 5.04C8.52298 5.22667 8.41965 5.49 8.41965 5.83ZM10.0996 10.32C10.4596 10.28 10.7396 10.15 10.9396 9.93C11.1463 9.71 11.2496 9.44667 11.2496 9.14C11.2496 8.81333 11.1496 8.56333 10.9496 8.39C10.7496 8.21 10.4663 8.06667 10.0996 7.96V10.32Z" fill="#7B78AA"/>
<rect x="1" y="1" width="18" height="13" rx="2" stroke="#7B78AA" stroke-width="2"/>
</svg>
