<svg width="44" height="44" viewBox="0 0 44 44" fill="none" xmlns="http://www.w3.org/2000/svg">
<g clip-path="url(#clip0_458_90)">
<path d="M22 17C25.8675 17 29 13.8675 29 10C29 6.1325 25.8675 3 22 3C18.1325 3 15 6.1325 15 10C15 13.8675 18.1325 17 22 17ZM22 20.5C17.3275 20.5 8 22.845 8 27.5V31H36V27.5C36 22.845 26.6725 20.5 22 20.5Z" fill="#D1D4D6"/>
<path d="M22 17C25.8675 17 29 13.8675 29 10C29 6.1325 25.8675 3 22 3C18.1325 3 15 6.1325 15 10C15 13.8675 18.1325 17 22 17ZM22 20.5C17.3275 20.5 8 22.845 8 27.5V31H36V27.5C36 22.845 26.6725 20.5 22 20.5Z" fill="#D1D4D6"/>
<ellipse cx="22" cy="32" rx="14" ry="10" fill="#D1D4D6"/>
</g>
<defs>
<clipPath id="clip0_458_90">
<rect width="44" height="44" fill="white"/>
</clipPath>
</defs>
</svg>
