<svg width="30" height="30" viewBox="0 0 30 30" fill="none" xmlns="http://www.w3.org/2000/svg">
<path d="M14.1357 0C13.7697 0 13.4545 0.265453 13.3945 0.626953L12.9697 3.18457C12.2396 3.31007 11.5338 3.50412 10.8545 3.75586L9.20215 1.75195C8.96965 1.46845 8.56507 1.3946 8.24707 1.5791L6.75293 2.44336C6.43493 2.62636 6.2958 3.01249 6.4248 3.35449L7.33301 5.78027C6.76986 6.24959 6.24959 6.76986 5.78027 7.33301L3.35449 6.4248C3.01249 6.2958 2.62636 6.43493 2.44336 6.75293L1.5791 8.24707C1.3946 8.56507 1.46845 8.96965 1.75195 9.20215L3.75586 10.8545C3.50412 11.5338 3.31007 12.2396 3.18457 12.9697L0.626953 13.3945C0.265453 13.456 0 13.7682 0 14.1357V15.8643C0 16.2303 0.265453 16.5455 0.626953 16.6055L3.18457 17.0303C3.31007 17.7604 3.50412 18.4662 3.75586 19.1455L1.75195 20.7979C1.46845 21.0304 1.3961 21.4349 1.5791 21.7529L2.44336 23.2471C2.62636 23.5651 3.01249 23.7042 3.35449 23.5752L5.78027 22.667C6.24959 23.2301 6.76986 23.7504 7.33301 24.2197L6.4248 26.6455C6.2958 26.989 6.43643 27.3736 6.75293 27.5566L8.24707 28.4209C8.56507 28.6039 8.96965 28.53 9.20215 28.248L10.8516 26.2441C11.5316 26.4964 12.2387 26.6898 12.9697 26.8154L13.3945 29.373C13.456 29.7345 13.7682 30 14.1357 30H15.8643C16.2303 30 16.5455 29.7345 16.6055 29.373L17.0303 26.8154C17.7604 26.6899 18.4662 26.4959 19.1455 26.2441L20.7979 28.248C21.0304 28.5315 21.4349 28.6039 21.7529 28.4209L23.2471 27.5566C23.5651 27.3736 23.7042 26.9875 23.5752 26.6455L22.667 24.2197C23.2301 23.7504 23.7504 23.2301 24.2197 22.667L26.6455 23.5752C26.989 23.7042 27.3736 23.5636 27.5566 23.2471L28.4209 21.7529C28.6039 21.4349 28.53 21.0304 28.248 20.7979L26.2441 19.1484C26.4964 18.4684 26.6898 17.7613 26.8154 17.0303L29.373 16.6055C29.7345 16.544 30 16.2318 30 15.8643V14.1357C30 13.7697 29.7345 13.4545 29.373 13.3945L26.8154 12.9697C26.6899 12.2396 26.4959 11.5338 26.2441 10.8545L28.248 9.20215C28.5315 8.96965 28.6039 8.56507 28.4209 8.24707L27.5566 6.75293C27.3736 6.43493 26.9875 6.2958 26.6455 6.4248L24.2197 7.33301C23.7504 6.76986 23.2301 6.24959 22.667 5.78027L23.5752 3.35449C23.7042 3.01099 23.5636 2.62636 23.2471 2.44336L21.7529 1.5791C21.4349 1.3961 21.0304 1.46995 20.7979 1.75195L19.1484 3.75586C18.4684 3.50365 17.7613 3.31023 17.0303 3.18457L16.6055 0.626953C16.544 0.265453 16.2318 0 15.8643 0H14.1357ZM13.5 6.13477V10.7607C12.6232 11.0707 11.864 11.6448 11.3267 12.4039C10.7895 13.1631 10.5007 14.07 10.5 15C10.5001 15.2762 10.5256 15.5517 10.5762 15.8232L6.56836 18.1348C6.20735 17.1582 6 16.1055 6 15C6 10.5242 9.23304 6.8457 13.5 6.13477ZM16.5 6.13477C20.767 6.8457 24 10.5242 24 15C24 16.1068 23.7906 17.1602 23.4287 18.1377L19.4209 15.8203C19.4723 15.5499 19.4988 15.2753 19.5 15C19.4987 14.0705 19.2096 13.1642 18.6724 12.4057C18.1352 11.6471 17.3763 11.0735 16.5 10.7637V6.13477ZM17.9209 18.416L21.9434 20.7393C20.2956 22.734 17.8029 24 15 24C12.1971 24 9.70442 22.734 8.05664 20.7393L12.0762 18.4189C12.8909 19.1161 13.9277 19.4995 15 19.5C16.0716 19.498 17.1074 19.1136 17.9209 18.416V18.416Z" fill="#FF00FF"/>
</svg>
